<svg xmlns="http://www.w3.org/2000/svg" fill="none" viewBox="0 0 24 24"><path fill="url(#a)" d="M12 0C5.935 0 1 4.935 1 11V22.5C1 23.327 1.673 24 2.5 24H3.5C4.327 24 5 23.327 5 22.5C5 22.224 5.225 22 5.5 22H6.5C6.775 22 7 22.224 7 22.5C7 23.327 7.673 24 8.5 24H9.5C10.327 24 11 23.327 11 22.5C11 22.224 11.225 22 11.5 22H12.5C12.775 22 13 22.224 13 22.5C13 23.327 13.673 24 14.5 24H15.5C16.327 24 17 23.327 17 22.5C17 22.224 17.225 22 17.5 22H18.5C18.775 22 19 22.224 19 22.5C19 23.327 19.673 24 20.5 24H21.5C22.327 24 23 23.327 23 22.5V11C23 4.935 18.065 0 12 0ZM10 9.5C10 9.776 9.776 10 9.5 10C8.673 10 8 10.673 8 11.5C8 12.244 8.561 12.879 9.303 12.978C9.468 13 9.61 13.102 9.685 13.25C9.76 13.398 9.755 13.574 9.673 13.719C9.229 14.509 8.396 15 7.5 15C6.121 15 5 13.878 5 12.5V8.5C5 7.122 6.121 6 7.5 6C8.879 6 10 7.122 10 8.5V9.5ZM19 9.5C19 9.776 18.776 10 18.5 10C17.673 10 17 10.673 17 11.5C17 12.244 17.561 12.879 18.303 12.978C18.468 13 18.611 13.102 18.685 13.25C18.759 13.398 18.755 13.574 18.673 13.719C18.229 14.509 17.396 15 16.5 15C15.121 15 14 13.878 14 12.5V8.5C14 7.122 15.121 6 16.5 6C17.879 6 19 7.122 19 8.5V9.5Z"/><defs><linearGradient id="a" x1="12" x2="12" y1="0" y2="24" gradientUnits="userSpaceOnUse"><stop stop-color="#003AFF"/><stop offset="1" stop-color="#90A8F9"/></linearGradient></defs></svg>