<svg xmlns="http://www.w3.org/2000/svg" version="1.1" xmlns:xlink="http://www.w3.org/1999/xlink" width="512" height="512" x="0" y="0" viewBox="0 0 682.667 682.667" style="enable-background:new 0 0 512 512" xml:space="preserve" class=""><g><defs><clipPath id="a" clipPathUnits="userSpaceOnUse"><path d="M0 512h512V0H0Z" fill="#ef7822" opacity="1" data-original="#000000"></path></clipPath></defs><g clip-path="url(#a)" transform="matrix(1.33333 0 0 -1.33333 0 682.667)"><path d="m0 0-53.81-14.418c-24.819-6.65-50.33 8.078-56.98 32.897l-87.557 326.768c-6.65 24.818 8.078 50.329 32.897 56.98l205.246 54.995c24.819 6.65 50.33-8.078 56.98-32.897l1.071-3.996" style="stroke-linecap: round; stroke-linejoin: round; stroke-miterlimit: 10; stroke-dasharray: none; stroke-opacity: 1;" transform="translate(209.944 34.598)" fill="none" stroke="#EF7822" stroke-width="20px" stroke-linecap="round" stroke-linejoin="round" stroke-miterlimit="10" stroke-dasharray="none" stroke-opacity="" data-original="#000000" opacity="1" class=""></path><path d="M0 0a6.532 6.532 0 0 1-6.524-6.524v-338.294A6.531 6.531 0 0 1 0-351.342h212.486a6.531 6.531 0 0 1 6.524 6.524V-6.524A6.532 6.532 0 0 1 212.486 0z" style="stroke-linecap: round; stroke-linejoin: round; stroke-miterlimit: 10; stroke-dasharray: none; stroke-opacity: 1;" transform="translate(242.99 413.644)" fill="none" stroke="#EF7822" stroke-width="20px" stroke-linecap="round" stroke-linejoin="round" stroke-miterlimit="10" stroke-dasharray="none" stroke-opacity="" data-original="#000000" opacity="1" class=""></path><path d="M0 0h-212.486c-25.695 0-46.524 20.83-46.524 46.524v338.294c0 25.695 20.829 46.524 46.524 46.524H0c25.694 0 46.524-20.829 46.524-46.524V46.524C46.524 20.83 25.694 0 0 0Z" style="stroke-linecap: round; stroke-linejoin: round; stroke-miterlimit: 10; stroke-dasharray: none; stroke-opacity: 1;" transform="translate(455.476 22.301)" fill="none" stroke="#EF7822" stroke-width="20px" stroke-linecap="round" stroke-linejoin="round" stroke-miterlimit="10" stroke-dasharray="none" stroke-opacity="" data-original="#000000" opacity="1" class=""></path><path d="m0 0-30.324-22.133c-11.73-8.562-27.551 2.932-23.033 16.734l11.679 35.68-30.56 22.101c-11.754 8.501-5.741 27.077 8.765 27.077h37.715l11.526 35.658c4.464 13.809 24 13.809 28.464 0l11.526-35.658h37.715c14.506 0 20.519-18.576 8.765-27.077l-30.56-22.101 11.679-35.68c4.518-13.802-11.303-25.296-23.033-16.734Z" style="fill-opacity:1;fill-rule:nonzero;stroke:none" transform="translate(349.233 187.774)" fill="#EF7822" data-original="#000000" opacity="1"></path></g></g></svg>