<svg width="90" height="62" viewBox="0 0 90 62" fill="none" xmlns="http://www.w3.org/2000/svg">
<path d="M89.333 0.00012207L82.7988 17.9517L81.3188 22.0193L74.7845 39.9709L73.3045 44.0485L66.7702 62.0001H47.6709L54.2051 44.0485L55.6952 39.9709L62.2295 22.0193L63.7095 17.9517L70.2438 0.00012207H89.333Z" fill="#EF7822"/>
<path d="M65.9044 0.00012207L59.3702 17.9517L57.8901 22.0193L51.3559 39.9709L49.8658 44.0485L43.3315 62.0001H24.2322L30.7664 44.0485L32.2465 39.9709L38.7807 22.0193L40.2607 17.9517L46.795 0.00012207H65.9044Z" fill="#EF7822"/>
<path d="M42.4657 0L35.9315 17.9516L34.4515 22.0192L27.9172 39.9707L26.4271 44.0483L19.9029 61.9999H0.793457L7.32776 44.0483L8.81784 39.9707L15.3521 22.0192L16.8321 17.9516L23.3664 0H42.4657Z" fill="#EF7822"/>
</svg>
