<svg width="354" height="63" viewBox="0 0 354 63" fill="none" xmlns="http://www.w3.org/2000/svg">
<g clip-path="url(#clip0_402_74)">
<path d="M88.5398 0L82.0055 17.9516L80.5255 22.0192L73.9913 39.9707L72.5112 44.0484L65.977 62H46.8777L53.4119 44.0484L54.902 39.9707L61.4362 22.0192L62.9163 17.9516L69.4505 0H88.5398Z" fill="#EF7822"/>
<path d="M65.111 0L58.5767 17.9516L57.0967 22.0192L50.5624 39.9707L49.0724 44.0484L42.5381 62H23.4387L29.973 44.0484L31.453 39.9707L37.9873 22.0192L39.4673 17.9516L46.0015 0H65.111Z" fill="#EF7822"/>
<path d="M41.6723 0L35.138 17.9516L33.658 22.0192L27.1237 39.9707L25.6336 44.0483L19.1095 61.9999H0L6.53431 44.0483L8.02438 39.9707L14.5586 22.0192L16.0387 17.9516L22.5729 0H41.6723Z" fill="#EF7822"/>
<path d="M327.335 28.2285H327.981C329.149 27.06 330.502 25.9837 332.04 24.9997C333.331 24.1387 334.869 23.37 336.652 22.6935C338.436 22.017 340.435 21.6787 342.649 21.6787C345.847 21.6787 348.491 22.509 350.582 24.1695C352.673 25.7685 353.719 27.9825 353.719 30.8115C353.719 31.6725 353.626 32.6565 353.442 33.7635C353.257 34.809 353.042 35.9467 352.796 37.1767C352.55 38.3452 352.273 39.5445 351.966 40.7745C351.72 41.943 351.505 43.0192 351.32 44.0032L347.446 61.9919H328.719L333.793 37.9147C333.916 37.1152 334.069 36.3157 334.254 35.5162C334.438 34.6552 334.531 33.8865 334.531 33.21C334.531 32.2875 334.285 31.5495 333.793 30.996C333.362 30.381 332.686 30.0735 331.763 30.0735C330.656 30.0735 329.58 30.4732 328.534 31.2727C327.55 32.0722 326.782 32.7795 326.228 33.3945L320.14 61.9919H301.321L314.42 0H333.331L327.335 28.2285Z" fill="white"/>
<path d="M257.986 25.7385C261.122 24.201 264.32 23.094 267.58 22.4175C270.901 21.6795 274.591 21.3105 278.65 21.3105C282.586 21.3105 285.845 21.618 288.428 22.233C291.011 22.848 293.071 23.7397 294.609 24.9082C296.146 26.0767 297.223 27.4605 297.838 29.0595C298.453 30.6585 298.76 32.4727 298.76 34.5022C298.76 35.6707 298.668 36.9315 298.483 38.2845C298.36 39.6374 298.207 40.7752 298.022 41.6977L293.686 61.9927H278.834L277.174 56.0887H276.62C274.652 58.2412 272.346 59.9017 269.701 61.0702C267.118 62.1772 264.535 62.7307 261.952 62.7307C260.476 62.7307 259.031 62.5154 257.617 62.0849C256.202 61.6544 254.941 61.0087 253.834 60.1477C252.727 59.2252 251.836 58.0874 251.159 56.7344C250.483 55.3199 250.144 53.6287 250.144 51.6607C250.144 48.4627 251.005 45.9412 252.727 44.0962C254.511 42.1897 256.817 40.7752 259.646 39.8527C262.537 38.8687 265.765 38.2537 269.332 38.0077C272.961 37.7617 276.589 37.6387 280.218 37.6387C280.341 37.0237 280.495 36.1627 280.679 35.0557C280.864 33.8872 280.956 32.8725 280.956 32.0115C280.956 30.9045 280.648 29.8897 280.033 28.9672C279.48 27.9832 278.281 27.4912 276.436 27.4912C274.283 27.4912 272.684 28.137 271.639 29.4285C270.655 30.6585 270.009 32.1652 269.701 33.9487H256.233L257.986 25.7385ZM279.203 41.9744H277.543C275.759 41.9744 274.222 42.2204 272.93 42.7124C271.7 43.1429 270.685 43.7272 269.886 44.4652C269.148 45.2032 268.594 46.0334 268.225 46.9559C267.856 47.8784 267.672 48.8009 267.672 49.7234C267.672 51.1994 268.041 52.3064 268.779 53.0444C269.578 53.7824 270.501 54.1514 271.546 54.1514C272.838 54.1514 274.099 53.6902 275.329 52.7677C276.62 51.8452 277.42 50.6152 277.727 49.0777L279.203 41.9744Z" fill="white"/>
<path d="M242.214 61.9919H223.395L236.494 0H255.405L242.214 61.9919Z" fill="white"/>
<path d="M204.764 22.3242H223.583L215.096 61.9917H200.151L198.491 56.0877H197.937C196.338 57.9942 194.155 59.5932 191.388 60.8847C188.682 62.1147 185.945 62.7297 183.177 62.7297C179.487 62.7297 176.597 61.8072 174.506 59.9622C172.415 58.0557 171.369 55.5957 171.369 52.5822C171.369 51.0447 171.615 49.1382 172.107 46.8627C172.661 44.5257 173.153 42.3425 173.583 40.313L177.458 22.3242H196.185L191.572 43.9107C191.449 44.4027 191.326 44.987 191.203 45.6635C191.08 46.34 190.957 47.0165 190.834 47.693C190.711 48.308 190.588 48.923 190.465 49.538C190.404 50.0915 190.373 50.5527 190.373 50.9217C190.373 51.8442 190.557 52.6437 190.926 53.3202C191.357 53.9352 192.095 54.2427 193.14 54.2427C194.247 54.2427 195.293 53.8737 196.277 53.1357C197.261 52.3977 198.03 51.6905 198.583 51.014L204.764 22.3242Z" fill="white"/>
<path d="M161.132 61.9926H142.406L150.801 22.3251H169.712L161.132 61.9926ZM172.11 10.2404C172.11 11.6549 171.803 12.8849 171.188 13.9304C170.634 14.9759 169.865 15.8676 168.881 16.6056C167.959 17.3436 166.883 17.8971 165.653 18.2661C164.423 18.6351 163.162 18.8196 161.87 18.8196C159.411 18.8196 157.35 18.2354 155.69 17.0669C154.029 15.8984 153.199 14.0534 153.199 11.5319C153.199 10.1789 153.476 8.97967 154.029 7.93417C154.583 6.82717 155.321 5.93542 156.243 5.25892C157.227 4.52092 158.334 3.96742 159.564 3.59842C160.856 3.22942 162.178 3.04492 163.531 3.04492C165.929 3.04492 167.959 3.62917 169.619 4.79767C171.28 5.96617 172.11 7.78042 172.11 10.2404Z" fill="white"/>
<path d="M125.532 20.3867C125.716 19.4642 125.809 18.2035 125.809 16.6045C125.809 15.682 125.747 14.7902 125.624 13.9292C125.501 13.0067 125.286 12.2072 124.978 11.5307C124.671 10.7927 124.21 10.2392 123.595 9.87022C122.98 9.43972 122.18 9.22447 121.196 9.22447C120.089 9.22447 119.074 9.47047 118.152 9.96247C117.229 10.4545 116.399 11.1002 115.661 11.8997C114.985 12.6377 114.431 13.5295 114.001 14.575C113.632 15.559 113.447 16.6045 113.447 17.7115C113.447 19.3105 113.847 20.5405 114.646 21.4015C115.507 22.2625 116.614 22.9697 117.967 23.5232C119.32 24.0767 120.858 24.538 122.58 24.907C124.302 25.276 126.085 25.7065 127.93 26.1985C129.468 26.629 131.005 27.1825 132.543 27.859C134.08 28.5355 135.433 29.458 136.602 30.6265C137.832 31.7335 138.816 33.2095 139.554 35.0545C140.292 36.838 140.661 39.0827 140.661 41.7887C140.661 45.6632 139.892 48.9227 138.355 51.5672C136.817 54.2117 134.695 56.3642 131.989 58.0247C129.283 59.6852 126.055 60.8844 122.303 61.6224C118.613 62.3604 114.585 62.7294 110.218 62.7294C105.79 62.7294 102.162 62.4527 99.333 61.8992C96.5655 61.2842 94.3823 60.6384 92.7833 59.9619C90.8768 59.1624 89.4623 58.2399 88.5398 57.1944L91.6763 44.5562H107.912C107.851 45.1097 107.789 45.8785 107.728 46.8625C107.666 47.785 107.635 48.523 107.635 49.0765C107.635 49.8145 107.728 50.5832 107.912 51.3827C108.097 52.1822 108.373 52.9202 108.742 53.5967C109.173 54.2732 109.757 54.8267 110.495 55.2572C111.233 55.6877 112.156 55.903 113.263 55.903C114.493 55.903 115.569 55.6262 116.491 55.0727C117.475 54.5192 118.275 53.8427 118.89 53.0432C119.566 52.1822 120.058 51.2597 120.366 50.2757C120.735 49.2302 120.919 48.2155 120.919 47.2315C120.919 45.8785 120.581 44.7407 119.905 43.8182C119.29 42.8957 118.429 42.127 117.322 41.512C116.215 40.8355 114.923 40.282 113.447 39.8515C112.033 39.3595 110.557 38.8675 109.019 38.3755C107.543 37.945 105.975 37.4222 104.314 36.8072C102.715 36.1922 101.239 35.3312 99.8865 34.2242C98.5335 33.1172 97.3958 31.7335 96.4733 30.073C95.6123 28.351 95.1818 26.1677 95.1818 23.5232C95.1818 19.5872 96.1658 16.297 98.1338 13.6525C100.163 10.9465 102.685 8.76322 105.698 7.10272C108.773 5.44222 112.125 4.27372 115.753 3.59723C119.382 2.85923 122.826 2.49023 126.085 2.49023C130.39 2.49023 134.08 3.01298 137.155 4.05848C140.292 5.04247 142.66 6.21097 144.259 7.56397L140.845 20.3867H125.532Z" fill="white"/>
</g>
<defs>
<clipPath id="clip0_402_74">
<rect width="354" height="63" fill="white"/>
</clipPath>
</defs>
</svg>
