<svg width="61" height="24" viewBox="0 0 61 24" fill="none" xmlns="http://www.w3.org/2000/svg">
<path d="M55.4714 23.9681H4.68617C2.11881 23.9681 0.0322266 21.8815 0.0322266 19.3078V4.6852C0.0322266 2.11783 2.11881 0.03125 4.68617 0.03125H55.4714C58.0451 0.03125 60.1254 2.11783 60.1254 4.6852V19.3086C60.1254 21.8815 58.0388 23.9681 55.4714 23.9681Z" fill="url(#paint0_linear_82_2482)"/>
<path d="M52.0379 7.625L48.8271 19.8974L48.8145 19.9218H51.3226L54.5452 7.625H52.0379Z" fill="#292929"/>
<path d="M12.2683 14.6067C11.9375 14.7812 11.4867 14.883 11.0596 14.883C10.158 14.883 9.64647 14.7385 9.59279 14.0114V13.9633C9.59279 13.9333 9.58647 13.9033 9.58647 13.8733V11.7567L9.59279 11.504V10.0072H9.58647V9.3701L9.59279 9.11747V7.67352L7.35621 7.968C8.87121 7.67352 9.73726 6.47668 9.73726 5.28615V4.55273H7.22358V7.98615L7.0791 8.028V14.3896C7.16358 16.1754 8.34147 17.2396 10.2717 17.2396C10.957 17.2396 11.7086 17.0833 12.2857 16.8243L12.2975 16.818V14.5869L12.2683 14.6067Z" fill="#292929"/>
<path d="M12.6655 7.16309L5.6123 8.25098V10.0368L12.6655 8.94887V7.16309Z" fill="#292929"/>
<path d="M12.6655 9.77832L5.6123 10.8662V12.5738L12.6655 11.486V9.77832Z" fill="#292929"/>
<path d="M20.5731 10.6021C20.4712 8.61814 19.2325 7.43945 17.2115 7.43945C16.051 7.43945 15.0886 7.89024 14.4396 8.73814C13.7899 9.58603 13.4473 10.8302 13.4473 12.3397C13.4473 13.8492 13.7899 15.0997 14.4396 15.9413C15.0894 16.7892 16.051 17.24 17.2115 17.24C19.2317 17.24 20.4767 16.0558 20.5731 14.0592V17.0537H23.0867V7.64314L20.5731 8.02761M20.7049 12.3397C20.7049 14.1018 19.7788 15.2379 18.3538 15.2379C16.8807 15.2379 16.0028 14.1555 16.0028 12.3397C16.0028 10.5176 16.8807 9.4234 18.3538 9.4234C19.0691 9.4234 19.6707 9.69972 20.086 10.2295C20.4886 10.7529 20.7049 11.48 20.7049 12.3397Z" fill="#292929"/>
<path d="M30.4158 7.43926C28.3892 7.43926 27.1505 8.61794 27.0542 10.6082V4.9082L24.5405 5.29268V17.0543H27.0542V14.0598C27.1505 16.0564 28.3947 17.2406 30.4158 17.2406C32.785 17.2406 34.1982 15.4066 34.1982 12.3403C34.1982 9.27399 32.7842 7.43926 30.4158 7.43926ZM29.2726 15.2377C27.8413 15.2377 26.9216 14.1016 26.9216 12.3395C26.9216 11.4798 27.1379 10.7519 27.5405 10.2348C27.9558 9.70583 28.5566 9.42873 29.2726 9.42873C30.7458 9.42873 31.6237 10.5174 31.6237 12.345C31.6237 14.1553 30.7458 15.2377 29.2726 15.2377Z" fill="#292929"/>
<path d="M41.0344 7.43926C39.0079 7.43926 37.7692 8.61794 37.6729 10.6082V4.9082L35.1592 5.29268V17.0543H37.6729V14.0598C37.7692 16.0564 39.0134 17.2406 41.0344 17.2406C43.4037 17.2406 44.8168 15.4066 44.8168 12.3403C44.8168 9.27399 43.4037 7.43926 41.0344 7.43926ZM39.8976 15.2377C38.4663 15.2377 37.5466 14.1016 37.5466 12.3395C37.5466 11.4798 37.7629 10.7519 38.1655 10.2348C38.5808 9.70583 39.1815 9.42873 39.8976 9.42873C41.3708 9.42873 42.2487 10.5174 42.2487 12.345C42.2487 14.1553 41.3708 15.2377 39.8976 15.2377Z" fill="#292929"/>
<path d="M44.8223 7.625H47.5041L49.687 17.0411H47.2815L44.8223 7.625Z" fill="#292929"/>
<defs>
<linearGradient id="paint0_linear_82_2482" x1="0.0323687" y1="11.9997" x2="60.1253" y2="11.9997" gradientUnits="userSpaceOnUse">
<stop stop-color="#3BFF9D"/>
<stop offset="1" stop-color="#3BFFC8"/>
</linearGradient>
</defs>
</svg>
